<?xml version="1.0" encoding="utf-8"?>
<!-- Generator: Adobe Illustrator 23.1.1, SVG Export Plug-In . SVG Version: 6.00 Build 0)  -->
<svg version="1.1" id="图层_1" xmlns="http://www.w3.org/2000/svg" xmlns:xlink="http://www.w3.org/1999/xlink" x="0px" y="0px"
	 viewBox="0 0 293 293" style="enable-background:new 0 0 293 293;" xml:space="preserve">
<style type="text/css">
	.st0{fill:#9B857B;}
	.st1{fill:#E01A21;}
	.st2{fill:#FFFFFF;}
</style>
<g>
	<g>
		<g>
			<path class="st0" d="M245.12,6.49H47.91C25.07,6.49,6.5,25.07,6.5,47.91v197.21c0,22.85,18.57,41.4,41.41,41.4h197.21
				c22.82,0,41.38-18.55,41.38-41.4V47.91C286.5,25.07,267.94,6.49,245.12,6.49z"/>
			<path class="st1" d="M278.49,245.11c0,18.37-15.03,33.38-33.37,33.38H47.91c-18.38,0-33.41-15.01-33.41-33.38V47.91
				c0-18.36,15.03-33.4,33.41-33.4h197.21c18.34,0,33.37,15.03,33.37,33.4V245.11z"/>
			<path class="st2" d="M251.4,141.52h-78.49v14.52h78.49V141.52z M219.59,73.61h-13.83v14.48h13.83V73.61z M251.4,40.24h-78.49
				v83.65h78.49V40.24z M236.89,109.36h-49.48V54.73h49.48V109.36z M242.66,173.86v-0.03h-69.19v14.51h63.96v19.81h-63.96v14.51
				h63.96v20.13H125.79v-86.58h17.71v66.45H158V40.11h-46.69v202.68H93.57V40.52H58.19V30.23H43.68v10.29H32.76v14.5h10.92v202.28
				h14.53V55.02h20.86v202.28h172.85v-83.44H242.66z M125.79,54.6h17.71v87.12l-17.71-0.02V54.6z"/>
		</g>
	</g>
</g>
</svg>
